<mxfile host="app.diagrams.net" modified="2022-10-08T21:47:23.673Z" agent="5.0 (Windows NT 10.0; Win64; x64) AppleWebKit/537.36 (KHTML, like Gecko) Chrome/106.0.0.0 Safari/537.36" etag="ZUYq9QmGA6yUj3HDVl4e" version="20.4.0" type="github">
  <diagram id="miYEQRG-ZJl3zBejz5vT" name="Page-1">
    <mxGraphModel dx="1888" dy="579" grid="1" gridSize="10" guides="1" tooltips="1" connect="1" arrows="1" fold="1" page="1" pageScale="1" pageWidth="850" pageHeight="1100" math="0" shadow="0">
      <root>
        <mxCell id="0" />
        <mxCell id="1" parent="0" />
        <mxCell id="A2o7JmV_v6h8_hCLpc3F-5" value="client requests&amp;nbsp; the google.com" style="text;html=1;strokeColor=none;fillColor=none;align=center;verticalAlign=middle;whiteSpace=wrap;rounded=0;" parent="1" vertex="1">
          <mxGeometry y="115" width="60" height="30" as="geometry" />
        </mxCell>
        <mxCell id="A2o7JmV_v6h8_hCLpc3F-24" style="edgeStyle=orthogonalEdgeStyle;shape=flexArrow;rounded=0;orthogonalLoop=1;jettySize=auto;html=1;exitX=1;exitY=0.25;exitDx=0;exitDy=0;entryX=0;entryY=0.25;entryDx=0;entryDy=0;" parent="1" source="A2o7JmV_v6h8_hCLpc3F-8" target="A2o7JmV_v6h8_hCLpc3F-10" edge="1">
          <mxGeometry relative="1" as="geometry" />
        </mxCell>
        <mxCell id="A2o7JmV_v6h8_hCLpc3F-39" style="edgeStyle=orthogonalEdgeStyle;shape=flexArrow;rounded=0;orthogonalLoop=1;jettySize=auto;html=1;exitX=1;exitY=1;exitDx=0;exitDy=0;entryX=1;entryY=0;entryDx=0;entryDy=0;" parent="1" source="A2o7JmV_v6h8_hCLpc3F-8" target="A2o7JmV_v6h8_hCLpc3F-32" edge="1">
          <mxGeometry relative="1" as="geometry">
            <Array as="points">
              <mxPoint x="560" y="100" />
              <mxPoint x="560" y="185" />
              <mxPoint x="720" y="185" />
            </Array>
          </mxGeometry>
        </mxCell>
        <mxCell id="A2o7JmV_v6h8_hCLpc3F-42" style="edgeStyle=orthogonalEdgeStyle;shape=flexArrow;rounded=0;orthogonalLoop=1;jettySize=auto;html=1;exitX=0.5;exitY=1;exitDx=0;exitDy=0;entryX=0.933;entryY=0;entryDx=0;entryDy=0;entryPerimeter=0;" parent="1" source="A2o7JmV_v6h8_hCLpc3F-8" target="A2o7JmV_v6h8_hCLpc3F-38" edge="1">
          <mxGeometry relative="1" as="geometry" />
        </mxCell>
        <mxCell id="A2o7JmV_v6h8_hCLpc3F-55" style="edgeStyle=orthogonalEdgeStyle;shape=flexArrow;rounded=0;orthogonalLoop=1;jettySize=auto;html=1;exitX=0;exitY=0.75;exitDx=0;exitDy=0;entryX=1;entryY=0.75;entryDx=0;entryDy=0;" parent="1" source="A2o7JmV_v6h8_hCLpc3F-8" target="A2o7JmV_v6h8_hCLpc3F-50" edge="1">
          <mxGeometry relative="1" as="geometry" />
        </mxCell>
        <mxCell id="A2o7JmV_v6h8_hCLpc3F-8" value="DNS Resolver" style="rounded=0;whiteSpace=wrap;html=1;" parent="1" vertex="1">
          <mxGeometry x="360" y="40" width="210" height="60" as="geometry" />
        </mxCell>
        <mxCell id="A2o7JmV_v6h8_hCLpc3F-9" value="tell me the address of&amp;nbsp;google.com" style="text;html=1;strokeColor=none;fillColor=none;align=center;verticalAlign=middle;whiteSpace=wrap;rounded=0;" parent="1" vertex="1">
          <mxGeometry x="280" y="10" width="60" height="30" as="geometry" />
        </mxCell>
        <mxCell id="A2o7JmV_v6h8_hCLpc3F-23" style="edgeStyle=orthogonalEdgeStyle;shape=flexArrow;rounded=0;orthogonalLoop=1;jettySize=auto;html=1;exitX=0;exitY=0.75;exitDx=0;exitDy=0;entryX=1.008;entryY=0.887;entryDx=0;entryDy=0;entryPerimeter=0;" parent="1" source="A2o7JmV_v6h8_hCLpc3F-10" target="A2o7JmV_v6h8_hCLpc3F-8" edge="1">
          <mxGeometry relative="1" as="geometry" />
        </mxCell>
        <mxCell id="A2o7JmV_v6h8_hCLpc3F-10" value="DNS root name server" style="rounded=0;whiteSpace=wrap;html=1;" parent="1" vertex="1">
          <mxGeometry x="630" y="40" width="120" height="60" as="geometry" />
        </mxCell>
        <mxCell id="A2o7JmV_v6h8_hCLpc3F-13" value="where is&amp;nbsp;google.com" style="text;html=1;strokeColor=none;fillColor=none;align=center;verticalAlign=middle;whiteSpace=wrap;rounded=0;" parent="1" vertex="1">
          <mxGeometry x="580" width="60" height="30" as="geometry" />
        </mxCell>
        <mxCell id="A2o7JmV_v6h8_hCLpc3F-16" value="ask TLD server&amp;nbsp;" style="text;html=1;strokeColor=none;fillColor=none;align=center;verticalAlign=middle;whiteSpace=wrap;rounded=0;" parent="1" vertex="1">
          <mxGeometry x="590" y="115" width="60" height="30" as="geometry" />
        </mxCell>
        <mxCell id="A2o7JmV_v6h8_hCLpc3F-18" value="1" style="text;html=1;strokeColor=none;fillColor=none;align=center;verticalAlign=middle;whiteSpace=wrap;rounded=0;" parent="1" vertex="1">
          <mxGeometry x="50" y="110" width="60" height="30" as="geometry" />
        </mxCell>
        <mxCell id="A2o7JmV_v6h8_hCLpc3F-19" value="2" style="text;html=1;strokeColor=none;fillColor=none;align=center;verticalAlign=middle;whiteSpace=wrap;rounded=0;" parent="1" vertex="1">
          <mxGeometry x="230" y="10" width="60" height="30" as="geometry" />
        </mxCell>
        <mxCell id="A2o7JmV_v6h8_hCLpc3F-20" value="3" style="text;html=1;strokeColor=none;fillColor=none;align=center;verticalAlign=middle;whiteSpace=wrap;rounded=0;" parent="1" vertex="1">
          <mxGeometry x="530" y="10" width="60" height="30" as="geometry" />
        </mxCell>
        <mxCell id="A2o7JmV_v6h8_hCLpc3F-22" value="4" style="text;html=1;strokeColor=none;fillColor=none;align=center;verticalAlign=middle;whiteSpace=wrap;rounded=0;" parent="1" vertex="1">
          <mxGeometry x="550" y="110" width="60" height="30" as="geometry" />
        </mxCell>
        <mxCell id="A2o7JmV_v6h8_hCLpc3F-28" value="5 where is&amp;nbsp;google.com" style="text;html=1;strokeColor=none;fillColor=none;align=center;verticalAlign=middle;whiteSpace=wrap;rounded=0;" parent="1" vertex="1">
          <mxGeometry x="740.0014285714285" y="180" width="60" height="30" as="geometry" />
        </mxCell>
        <mxCell id="A2o7JmV_v6h8_hCLpc3F-41" style="edgeStyle=orthogonalEdgeStyle;shape=flexArrow;rounded=0;orthogonalLoop=1;jettySize=auto;html=1;exitX=0;exitY=0.25;exitDx=0;exitDy=0;entryX=0.75;entryY=1;entryDx=0;entryDy=0;" parent="1" source="A2o7JmV_v6h8_hCLpc3F-32" target="A2o7JmV_v6h8_hCLpc3F-8" edge="1">
          <mxGeometry relative="1" as="geometry" />
        </mxCell>
        <mxCell id="A2o7JmV_v6h8_hCLpc3F-32" value="TLD name server" style="rounded=0;whiteSpace=wrap;html=1;" parent="1" vertex="1">
          <mxGeometry x="600" y="270" width="120" height="60" as="geometry" />
        </mxCell>
        <mxCell id="A2o7JmV_v6h8_hCLpc3F-34" value="&amp;nbsp;6 ask authoritative" style="text;html=1;strokeColor=none;fillColor=none;align=center;verticalAlign=middle;whiteSpace=wrap;rounded=0;" parent="1" vertex="1">
          <mxGeometry x="540" y="240" width="60" height="30" as="geometry" />
        </mxCell>
        <mxCell id="A2o7JmV_v6h8_hCLpc3F-46" style="edgeStyle=orthogonalEdgeStyle;shape=flexArrow;rounded=0;orthogonalLoop=1;jettySize=auto;html=1;exitX=0.75;exitY=0;exitDx=0;exitDy=0;entryX=0.25;entryY=1;entryDx=0;entryDy=0;" parent="1" source="A2o7JmV_v6h8_hCLpc3F-38" target="A2o7JmV_v6h8_hCLpc3F-8" edge="1">
          <mxGeometry relative="1" as="geometry" />
        </mxCell>
        <mxCell id="A2o7JmV_v6h8_hCLpc3F-38" value="&lt;br&gt;&lt;span style=&quot;color: rgb(0, 0, 0); font-family: Helvetica; font-size: 12px; font-style: normal; font-variant-ligatures: normal; font-variant-caps: normal; font-weight: 400; letter-spacing: normal; orphans: 2; text-align: center; text-indent: 0px; text-transform: none; widows: 2; word-spacing: 0px; -webkit-text-stroke-width: 0px; background-color: rgb(248, 249, 250); text-decoration-thickness: initial; text-decoration-style: initial; text-decoration-color: initial; float: none; display: inline !important;&quot;&gt;authoritative&lt;/span&gt;&lt;br&gt;" style="rounded=0;whiteSpace=wrap;html=1;" parent="1" vertex="1">
          <mxGeometry x="330" y="370" width="130" height="50" as="geometry" />
        </mxCell>
        <mxCell id="A2o7JmV_v6h8_hCLpc3F-43" value="7&amp;nbsp; &lt;br&gt;address of google .com&amp;nbsp;" style="text;html=1;strokeColor=none;fillColor=none;align=center;verticalAlign=middle;whiteSpace=wrap;rounded=0;" parent="1" vertex="1">
          <mxGeometry x="460" y="310" width="60" height="30" as="geometry" />
        </mxCell>
        <mxCell id="A2o7JmV_v6h8_hCLpc3F-48" value="8 &lt;br&gt;IP address google.com is 8.8.8.8" style="text;html=1;strokeColor=none;fillColor=none;align=center;verticalAlign=middle;whiteSpace=wrap;rounded=0;" parent="1" vertex="1">
          <mxGeometry x="360" y="300" width="60" height="30" as="geometry" />
        </mxCell>
        <mxCell id="A2o7JmV_v6h8_hCLpc3F-65" style="edgeStyle=orthogonalEdgeStyle;shape=flexArrow;rounded=0;orthogonalLoop=1;jettySize=auto;html=1;exitX=1;exitY=0.5;exitDx=0;exitDy=0;entryX=0;entryY=0.5;entryDx=0;entryDy=0;" parent="1" source="A2o7JmV_v6h8_hCLpc3F-1" target="A2o7JmV_v6h8_hCLpc3F-50" edge="1">
          <mxGeometry relative="1" as="geometry" />
        </mxCell>
        <mxCell id="A2o7JmV_v6h8_hCLpc3F-1" value="start" style="ellipse;whiteSpace=wrap;html=1;" parent="1" vertex="1">
          <mxGeometry x="10" y="30" width="120" height="80" as="geometry" />
        </mxCell>
        <mxCell id="A2o7JmV_v6h8_hCLpc3F-54" style="edgeStyle=orthogonalEdgeStyle;shape=flexArrow;rounded=0;orthogonalLoop=1;jettySize=auto;html=1;exitX=1;exitY=0.25;exitDx=0;exitDy=0;entryX=0;entryY=0.25;entryDx=0;entryDy=0;" parent="1" source="A2o7JmV_v6h8_hCLpc3F-50" target="A2o7JmV_v6h8_hCLpc3F-8" edge="1">
          <mxGeometry relative="1" as="geometry" />
        </mxCell>
        <mxCell id="A2o7JmV_v6h8_hCLpc3F-59" style="edgeStyle=orthogonalEdgeStyle;shape=flexArrow;rounded=0;orthogonalLoop=1;jettySize=auto;html=1;exitX=0.75;exitY=1;exitDx=0;exitDy=0;entryX=0.925;entryY=-0.063;entryDx=0;entryDy=0;entryPerimeter=0;" parent="1" source="A2o7JmV_v6h8_hCLpc3F-50" target="A2o7JmV_v6h8_hCLpc3F-58" edge="1">
          <mxGeometry relative="1" as="geometry" />
        </mxCell>
        <mxCell id="A2o7JmV_v6h8_hCLpc3F-50" value="browse" style="whiteSpace=wrap;html=1;" parent="1" vertex="1">
          <mxGeometry x="150" y="40" width="120" height="60" as="geometry" />
        </mxCell>
        <mxCell id="A2o7JmV_v6h8_hCLpc3F-56" value="9&amp;nbsp;&lt;br&gt;IP addres 8.8.8.8&lt;br&gt;" style="text;html=1;strokeColor=none;fillColor=none;align=center;verticalAlign=middle;whiteSpace=wrap;rounded=0;" parent="1" vertex="1">
          <mxGeometry x="290" y="110" width="60" height="30" as="geometry" />
        </mxCell>
        <mxCell id="A2o7JmV_v6h8_hCLpc3F-57" value="" style="rounded=0;whiteSpace=wrap;html=1;" parent="1" vertex="1">
          <mxGeometry x="370" y="200" width="120" height="60" as="geometry" />
        </mxCell>
        <mxCell id="A2o7JmV_v6h8_hCLpc3F-61" style="edgeStyle=orthogonalEdgeStyle;shape=flexArrow;rounded=0;orthogonalLoop=1;jettySize=auto;html=1;exitX=0.5;exitY=0;exitDx=0;exitDy=0;entryX=0.339;entryY=1.064;entryDx=0;entryDy=0;entryPerimeter=0;" parent="1" source="A2o7JmV_v6h8_hCLpc3F-58" target="A2o7JmV_v6h8_hCLpc3F-50" edge="1">
          <mxGeometry relative="1" as="geometry" />
        </mxCell>
        <mxCell id="A2o7JmV_v6h8_hCLpc3F-58" value="server google&amp;nbsp;" style="rounded=0;whiteSpace=wrap;html=1;" parent="1" vertex="1">
          <mxGeometry x="130" y="340" width="120" height="60" as="geometry" />
        </mxCell>
        <mxCell id="A2o7JmV_v6h8_hCLpc3F-60" value="https://www.google.com&lt;br&gt;10&lt;br&gt;" style="text;html=1;strokeColor=none;fillColor=none;align=center;verticalAlign=middle;whiteSpace=wrap;rounded=0;" parent="1" vertex="1">
          <mxGeometry x="280" y="170" width="60" height="30" as="geometry" />
        </mxCell>
        <mxCell id="A2o7JmV_v6h8_hCLpc3F-62" value="connects done" style="text;html=1;strokeColor=none;fillColor=none;align=center;verticalAlign=middle;whiteSpace=wrap;rounded=0;" parent="1" vertex="1">
          <mxGeometry x="120" y="215" width="60" height="30" as="geometry" />
        </mxCell>
        <mxCell id="A2o7JmV_v6h8_hCLpc3F-63" value="8.8.8.8" style="text;html=1;strokeColor=none;fillColor=none;align=center;verticalAlign=middle;whiteSpace=wrap;rounded=0;" parent="1" vertex="1">
          <mxGeometry x="160" y="400" width="60" height="30" as="geometry" />
        </mxCell>
        <mxCell id="A2o7JmV_v6h8_hCLpc3F-64" value="212.32.33.33" style="text;html=1;strokeColor=none;fillColor=none;align=center;verticalAlign=middle;whiteSpace=wrap;rounded=0;" parent="1" vertex="1">
          <mxGeometry x="140" y="10" width="60" height="30" as="geometry" />
        </mxCell>
      </root>
    </mxGraphModel>
  </diagram>
</mxfile>
